/* XPM */
static char *fs_uae[] = {
/* columns rows colors chars-per-pixel */
"32 32 205 2 ",
"   c #337138",
".  c #616D2E",
"X  c #451145",
"o  c #471247",
"O  c #471547",
"+  c #441448",
"@  c #47134C",
"#  c #481348",
"$  c #491249",
"%  c #4B134B",
"&  c #4B174B",
"*  c #4D134D",
"=  c #4C144C",
"-  c #4D174D",
";  c #4F144F",
":  c #4F164F",
">  c #4F184F",
",  c #511451",
"<  c #531753",
"1  c #561C51",
"2  c #561856",
"3  c #5A1A5A",
"4  c #581D58",
"5  c #5D1B5D",
"6  c #4F204F",
"7  c #5B2E44",
"8  c #452650",
"9  c #4F2B5A",
"0  c #522352",
"q  c #562656",
"w  c #583C53",
"e  c #5C3C59",
"r  c #6D2A54",
"t  c #643C59",
"y  c #611D61",
"u  c #563F7C",
"i  c #6B2467",
"p  c #652E65",
"a  c #692369",
"s  c #733E68",
"d  c #732C73",
"f  c #743174",
"g  c #7D357D",
"h  c #374B73",
"j  c #5D4C5D",
"k  c #604442",
"l  c #784151",
"z  c #68505C",
"x  c #63625F",
"c  c #75675E",
"v  c #5D4C6B",
"b  c #6A4463",
"n  c #785566",
"m  c #794970",
"M  c #FF1500",
"N  c #F31E11",
"B  c #FF3000",
"V  c #FF3001",
"C  c #F83308",
"Z  c #E92B1A",
"A  c #C63B3F",
"S  c #A95A38",
"D  c #906D38",
"F  c #B9772D",
"G  c #FF4B00",
"H  c #FD4B03",
"J  c #FC4D04",
"K  c #FF6600",
"L  c #F76909",
"P  c #E77815",
"I  c #D1492F",
"U  c #DF4928",
"Y  c #DC5E20",
"T  c #D26235",
"R  c #953A58",
"E  c #923C7B",
"W  c #B93F6A",
"Q  c #C03553",
"!  c #824F41",
"~  c #9D4647",
"^  c #857E5D",
"/  c #B77C4F",
"(  c #A77D59",
")  c #91416D",
"_  c #885874",
"`  c #B74367",
"'  c #B25B60",
"]  c #AE4C75",
"[  c #876765",
"{  c #977562",
"}  c #966172",
"|  c #A4636B",
" . c #C67443",
".. c #24FF00",
"X. c #25FE01",
"o. c #28FA06",
"O. c #23CA27",
"+. c #25DC26",
"@. c #2BD92B",
"#. c #30D22F",
"$. c #24F62D",
"%. c #45FF00",
"&. c #46FE02",
"*. c #47F905",
"=. c #67FF00",
"-. c #68F10A",
";. c #7FF01D",
":. c #5CD82E",
">. c #4ECD3C",
",. c #53C133",
"<. c #70E420",
"1. c #739157",
"2. c #4FA34E",
"3. c #6E8D6D",
"4. c #11F675",
"5. c #43E06A",
"6. c #98BA1D",
"7. c #96862D",
"8. c #99A025",
"9. c #FF8100",
"0. c #FF9C00",
"q. c #F1940D",
"w. c #F18212",
"e. c #E8991D",
"r. c #FFB700",
"t. c #FEB701",
"y. c #F8B306",
"u. c #C99B23",
"i. c #DCA929",
"p. c #D0B437",
"a. c #95D216",
"s. c #88FF00",
"d. c #89EE15",
"f. c #A5FF00",
"g. c #A3F50C",
"h. c #B7FA05",
"j. c #B8FD01",
"k. c #B9FF00",
"l. c #B9DA2C",
"z. c #A5CC38",
"x. c #DAC11A",
"c. c #FFD200",
"v. c #FDD002",
"b. c #FBD004",
"n. c #D8EF0A",
"m. c #CDFE01",
"M. c #CEFF00",
"N. c #CAF805",
"B. c #D0E61E",
"V. c #FFED00",
"C. c #F6E60A",
"Z. c #E3FF00",
"A. c #F8FF00",
"S. c #E2E111",
"D. c #E9EF13",
"F. c #999657",
"G. c #82A84E",
"H. c #93BB44",
"J. c #B0AC4E",
"K. c #C2B544",
"L. c #351481",
"P. c #2A3A9D",
"I. c #3D39B7",
"U. c #304986",
"Y. c #261FC1",
"T. c #2728CF",
"R. c #2729CF",
"E. c #0B5CF0",
"W. c #005DFF",
"Q. c #2469E0",
"!. c #873E87",
"~. c #884B88",
"^. c #94578A",
"/. c #9F568E",
"(. c #914791",
"). c #9B4F9B",
"_. c #9C4E99",
"`. c #9B529B",
"'. c #AB4381",
"]. c #926392",
"[. c #936393",
"{. c #A558A5",
"}. c #AF61AF",
"|. c #B66BB6",
" X c #20AEA6",
".X c #5185A9",
"XX c #08F48D",
"oX c #3CCFA0",
"OX c #54C48A",
"+X c #119BE3",
"@X c #03AFF9",
"#X c #00ADFF",
"$X c #00FFD8",
"%X c #0EF3F4",
"&X c #00FDFE",
"*X c #B680B6",
"=X c #B389B3",
"-X c #BB83BB",
";X c #C094C0",
":X c #C39BC3",
">X c #C39CC3",
",X c #C49CC4",
"<X c #C49DC4",
"1X c #C59EC5",
"2X c None",
/* pixels */
"2X2X2X2X2X2X2X2X2X2X2X2X2X2X2X2X2X2X2X2X2X2X2X2X2X2X2X2X2X2X2X2X",
"2X2X2X<X<X<X<X<X<X<X<X<X<X<X<X<X<X<X<X<X<X<X<X<X<X<X,X<X<X2X2X2X",
"2X2X<X,X<X<X<X<X<X<X<X<X<X<X<X<X<X<X<X<X<X<X<X<X<X<X<X<X,X<X2X2X",
"2X<X<X;X-X|.|.|.|.|.|.|.|.|.|.|.|.|.|.|.|.|.|.|.|.|.|.-X;X<X<X2X",
"2X<X<X*X}.}.}.}.}.}.}.}.}.}.}.}.}.}.}.}.}.}.}.}.}.}.}.}.-X<X<X2X",
"2X<X<X{.{.{.{.{.{.{.{.{.{.{.{.{.{.{.{.{.{.{.{.{.{.{.{.{.{.<X<X2X",
"2X<X<X).).).).).).).).).).).).).).).)._.W ` /.'.` ] `.`.).<X<X2X",
"2X<X<X(.(.(.(.(.(.(.(.(.(.(.(.(.(.(.(.Q M Z ^.N M ' (.(.(.<X<X2X",
"2X<X<X!.!.!.!.!.!.!.!.!.!.!.!.!.!.!.E C V | A V U ~.!.!.!.<X<X2X",
"2X<X<Xg g g g g g g g g g g g g g g I G T ) H J } g g g g <X<X2X",
"2X<X<Xd d d d d d d d d d d d d d R K L _ Y K  .f d d d d <X<X2X",
"2X<X<Xa a a a a a a a a a a a a i P 9./ ~ 9.w.m a a a a a <X<X2X",
"2X<X<Xy y y y y y y y y y y y y S 0.e.s q.0.( y y y y y y <X<X2X",
"2X<X<X5 5 5 5 5 5 5 5 5 5 5 5 r y.t.{ F t.i.p 5 5 5 5 5 5 <X<X2X",
"2X<X<X3 3 3 3 3 3 3 3 3 3 3 3 u.v.p.l v.b.[ 3 3 3 3 3 3 3 <X<X2X",
"2X<X<X2 2 2 2 2 2 2 2 2 2 2 ! V.C.n x.V.K.4 2 2 2 2 2 2 2 <X<X2X",
"2X<X<X, , 2 < , < < < < < < S.A.J.D A.D.b < < < < < < < < <X<X2X",
"2X<X<X- > - , - > ; ; ; > 7.Z.B.t n.Z.F.; ; ; ; ; > ; - > <X<X2X",
"2X<X<X- - * * * & * & - 7 N.M.^ 8.M.l.q - & * - - & * % - <X<X2X",
"2X<X<X@ @ Y.T.u L.T.I.6 6.j.z.k j.h.c # X $ $ # # # $ $ $ <X<X2X",
"2X<X<XX X P.W.Q.9 E.W.3.f.g.z a.f.H.O X X X X X X X X X X >X<X2X",
"2X<X<XX X + +X#X.XU.#Xd.s.G.. s.d.e X X >X>XX <X:XX X X X >X<X2X",
"2X<X<X# # # h &X%Xv 5.=.<.w -.=.1.$ & $ <X$ X <X$ X # $ $ <X<X2X",
"2X<X<X# # # #  X$XoX*.%.OX,.%.:.0 # - # <X<X# <X<X# # # # <X<X2X",
"2X<X<X# * * # 8 XX$...>.4...o.x % % > % <X% % % <X% % % % <X<X2X",
"2X<X<X* * * * *   +.#.j O.@.2.; * - ; * <X* * <X<X* * * * <X<X2X",
"2X<X<X, - , , * ; ; ; ; , ; ; ; ; ; ; ; ; ; ; ; ; ; ; ; , <X:X2X",
"2X<X<X]., , , , , , , , , , , , , , , , , , , , , , , , ].<X<X2X",
"2X<X<X=X]., , , , , , , , , , , , , , , , , , , , , , [.=X>X<X2X",
"2X2X:X<X,X<X<X<X<X<X<X<X<X<X<X<X<X<X<X<X<X<X<X<X<X<X<X<X>X:X2X2X",
"2X2X2X<X<X,X<X<X<X<X<X<X<X<X<X<X<X<X<X<X<X<X<X<X<X<X>X:X<X2X2X2X",
"2X2X2X2X2X2X2X2X2X2X2X2X2X2X2X2X2X2X2X2X2X2X2X2X2X2X2X2X2X2X2X2X"
};
